<?xml version="1.0" encoding="UTF-8" standalone="no"?>
<!-- Created with Inkscape (http://www.inkscape.org/) -->

<svg
   xmlns:dc="http://purl.org/dc/elements/1.1/"
   xmlns:cc="http://creativecommons.org/ns#"
   xmlns:rdf="http://www.w3.org/1999/02/22-rdf-syntax-ns#"
   xmlns:svg="http://www.w3.org/2000/svg"
   xmlns="http://www.w3.org/2000/svg"
   xmlns:sodipodi="http://sodipodi.sourceforge.net/DTD/sodipodi-0.dtd"
   xmlns:inkscape="http://www.inkscape.org/namespaces/inkscape"
   width="16mm"
   height="16mm"
   viewBox="0 0 56.692914 56.692913"
   id="svg2"
   version="1.1"
   inkscape:version="0.91 r13725"
   sodipodi:docname="rw_ico.svg"
   inkscape:export-filename="/home/rooler/Documents/therooler.github.io/assets/rw.ico"
   inkscape:export-xdpi="101.6"
   inkscape:export-ydpi="101.6">
  <defs
     id="defs4" />
  <sodipodi:namedview
     id="base"
     pagecolor="#ffffff"
     bordercolor="#666666"
     borderopacity="1.0"
     inkscape:pageopacity="0.0"
     inkscape:pageshadow="2"
     inkscape:zoom="5.1351562"
     inkscape:cx="48.462922"
     inkscape:cy="54.236324"
     inkscape:document-units="px"
     inkscape:current-layer="g4226"
     showgrid="false"
     inkscape:window-width="1855"
     inkscape:window-height="1056"
     inkscape:window-x="65"
     inkscape:window-y="24"
     inkscape:window-maximized="1"
     fit-margin-top="0"
     fit-margin-left="0"
     fit-margin-right="0"
     fit-margin-bottom="0" />
  <metadata
     id="metadata7">
    <rdf:RDF>
      <cc:Work
         rdf:about="">
        <dc:format>image/svg+xml</dc:format>
        <dc:type
           rdf:resource="http://purl.org/dc/dcmitype/StillImage" />
        <dc:title></dc:title>
      </cc:Work>
    </rdf:RDF>
  </metadata>
  <g
     inkscape:label="Layer 1"
     inkscape:groupmode="layer"
     id="layer1"
     transform="translate(-184.46813,-335.90587)">
    <g
       id="g4226">
      <rect
         style="color:#000000;clip-rule:nonzero;display:inline;overflow:visible;visibility:visible;opacity:1;isolation:auto;mix-blend-mode:normal;color-interpolation:sRGB;color-interpolation-filters:linearRGB;solid-color:#000000;solid-opacity:1;fill:#f44611;fill-opacity:1;fill-rule:nonzero;stroke:none;stroke-width:0.5;stroke-linecap:round;stroke-linejoin:round;stroke-miterlimit:4;stroke-dasharray:none;stroke-dashoffset:0;stroke-opacity:1;color-rendering:auto;image-rendering:auto;shape-rendering:auto;text-rendering:auto;enable-background:accumulate"
         id="rect4277"
         width="56.524231"
         height="56.706261"
         x="184.55734"
         y="336.01471" />
      <g
         id="g4317"
         transform="matrix(0.82830767,0,0,0.82830767,35.27438,65.361472)"
         style="fill:#ffffff;fill-opacity:1">
        <g
           id="g4222"
           style="fill:#ffffff;fill-opacity:1">
          <path
             d="m 201.29813,334.14984 c 3.06,-0.72 5.76,-1.08 8.82,-1.08 9.36,0 14.58,4.32 14.58,11.97 0,8.28 -6.57,13.5 -17.01,13.5 -0.63,0 -1.44,0 -2.61,-0.09 l -0.54,1.08 c 0.99,1.17 1.26,1.53 2.34,2.7 1.26,1.44 1.53,1.8 2.34,2.88 l 16.56,22.23 c 0.54,0.72 1.08,1.44 1.62,2.07 l 2.07,2.79 12.6,0 0,-2.7 c -2.88,-0.27 -4.32,-0.81 -5.49,-2.34 l -20.43,-26.64 c 5.04,-1.26 7.38,-2.25 10.35,-4.32 4.68,-3.33 7.2,-7.83 7.2,-13.05 0,-8.64 -6.3,-13.5 -17.46,-13.5 l -1.44,0 c -11.7,0.27 -11.7,0.27 -14.76,0.27 -2.97,0 -2.97,0 -15.57,-0.27 l 0,2.7 3.69,0.27 c 4.14,0.27 4.59,1.08 4.59,8.1 l 0,31.98766 8.55,0 z"
             style="font-style:normal;font-variant:normal;font-weight:500;font-stretch:normal;font-size:90px;line-height:125%;font-family:'URW Palladio L';-inkscape-font-specification:'URW Palladio L Medium';letter-spacing:0px;word-spacing:0px;fill:#ffffff;fill-opacity:1;stroke:none;stroke-width:1px;stroke-linecap:butt;stroke-linejoin:miter;stroke-opacity:1"
             id="path4186"
             inkscape:connector-curvature="0"
             sodipodi:nodetypes="csssccccccccccccsscscccsccc" />
          <path
             sodipodi:nodetypes="cccccccccccc"
             inkscape:connector-curvature="0"
             id="path4186-9"
             style="font-style:normal;font-variant:normal;font-weight:500;font-stretch:normal;font-size:90px;line-height:125%;font-family:'URW Palladio L';-inkscape-font-specification:'URW Palladio L Medium';letter-spacing:0px;word-spacing:0px;fill:#ffffff;fill-opacity:1;stroke:none;stroke-width:1px;stroke-linecap:butt;stroke-linejoin:miter;stroke-opacity:1"
             d="m 200.86072,360.88053 c -0.63,0 -6.04702,0.0688 -7.21702,-0.0212 l -0.004,0.98263 c 0.68672,3.17026 0.0223,2.93771 0.24856,3.26763 l 16.56,22.23 c 0.54,0.72 1.08,1.44 1.62,2.07 l 2.07,2.79 11.15416,0 0,-2.7 c -2.88,-0.27 -4.42328,-1.20588 -5.07691,-1.56544 -4.4827,-1.95211 -19.03689,-26.59388 -18.97565,-27.29464 z" />
        </g>
        <path
           d="m 199.91561,372.37127 c -0.63,0 -6.04702,0.0688 -7.21702,-0.0212 l -0.004,0.98263 0.005,3.29197 -0.0374,15.97411 16.29,-0.008 0,-2.7 c -2.88,-0.27 -4.42327,-1.53292 -5.49,-2.34 -5.19831,-4.87206 -3.5639,-14.93155 -3.5639,-14.93155 l 0.0176,-0.24761 z"
           style="font-style:normal;font-variant:normal;font-weight:500;font-stretch:normal;font-size:90px;line-height:125%;font-family:'URW Palladio L';-inkscape-font-specification:'URW Palladio L Medium';letter-spacing:0px;word-spacing:0px;fill:#ffffff;fill-opacity:1;stroke:none;stroke-width:1px;stroke-linecap:butt;stroke-linejoin:miter;stroke-opacity:1"
           id="path4186-9-1"
           inkscape:connector-curvature="0"
           sodipodi:nodetypes="ccccccccccc" />
      </g>
    </g>
  </g>
</svg>
